<?xml version="1.0" encoding="UTF-8" standalone="no"?>
<svg
  xmlns="http://www.w3.org/2000/svg"
  height="24"
  viewBox="0 0 24 24"
  width="24">
  <path
    fill="#343434"
    d="m 12.017618,20.169492 c 0.902564,0 1.641025,-0.738462 1.641025,-1.641026 h -3.282051 c 0,0.902564 0.738461,1.641026 1.641026,1.641026 z m 4.923076,-4.923077 v -4.102564 c 0,-2.5189745 -1.337435,-4.6276928 -3.692307,-5.1856416 V 5.4002607 c 0,-0.6810256 -0.549744,-1.2307692 -1.230769,-1.2307692 -0.681026,0 -1.23077,0.5497436 -1.23077,1.2307692 V 5.9582094 C 8.4401812,6.5161582 7.0945401,8.6166705 7.0945401,11.143851 v 4.102564 l -1.6410256,1.641026 v 0.820513 H 18.58172 v -0.820513 z m -1.641025,0.820513 H 8.7355658 v -4.923077 c 0,-2.0348725 1.238974,-3.6923082 3.2820522,-3.6923082 2.043076,0 3.282051,1.6574357 3.282051,3.6923082 z"
  />
</svg>
