<?xml version="1.0" encoding="UTF-8" standalone="no"?>
<svg
  xmlns="http://www.w3.org/2000/svg"
  height="24"
  viewBox="0 0 24 24"
  width="24">
  <path
    fill="#343740"
    d="m 4.184322,9.4618644 c -1.44375,0 -2.625,1.1812496 -2.625,2.6249996 0,1.44375 1.18125,2.625 2.625,2.625 1.44375,0 2.625,-1.18125 2.625,-2.625 0,-1.44375 -1.18125,-2.6249996 -2.625,-2.6249996 z m 15.75,0 c -1.44375,0 -2.625,1.1812496 -2.625,2.6249996 0,1.44375 1.18125,2.625 2.625,2.625 1.44375,0 2.625,-1.18125 2.625,-2.625 0,-1.44375 -1.18125,-2.6249996 -2.625,-2.6249996 z m -7.875,0 c -1.44375,0 -2.625,1.1812496 -2.625,2.6249996 0,1.44375 1.18125,2.625 2.625,2.625 1.44375,0 2.625,-1.18125 2.625,-2.625 0,-1.44375 -1.18125,-2.6249996 -2.625,-2.6249996 z"
  />
</svg>
