<?xml version="1.0" encoding="UTF-8" standalone="no"?>
<svg
  xmlns="http://www.w3.org/2000/svg"
  height="24"
  viewBox="0 0 24 24"
  width="24">
  <path
    fill="#343434"
    d="m 17.867771,12.986271 c 0.032,-0.256 0.056,-0.512 0.056,-0.784 0,-0.272 -0.024,-0.528 -0.056,-0.784 l 1.688,-1.32 c 0.152,-0.1199998 0.192,-0.3359998 0.096,-0.5119999 l -1.6,-2.7679999 c -0.072,-0.128 -0.208,-0.2 -0.352,-0.2 -0.048,0 -0.096,0.008 -0.136,0.024 l -1.992,0.8000003 c -0.416,-0.32 -0.864,-0.584 -1.352,-0.784 l -0.303999,-2.12 c -0.024,-0.192 -0.192,-0.336 -0.392001,-0.336 h -3.199999 c -0.200001,0 -0.3680006,0.144 -0.3920004,0.336 l -0.3039997,2.12 c -0.488,0.2 -0.9360001,0.472 -1.352,0.784 l -1.992,-0.8 c -0.048,-0.016 -0.096,-0.024 -0.144,-0.024 -0.1359999,0 -0.272,0.072 -0.344,0.2 L 4.195772,9.5862711 c -0.104,0.1760001 -0.056,0.3920001 0.096,0.5119999 l 1.6879999,1.32 c -0.032,0.256 -0.056,0.52 -0.056,0.784 0,0.264 0.024,0.528 0.056,0.784 l -1.6879999,1.32 c -0.152,0.120001 -0.1920001,0.336 -0.096,0.512 l 1.5999999,2.768 c 0.072,0.128 0.2080001,0.2 0.352,0.2 0.048,0 0.096,-0.008 0.136,-0.024 l 1.992,-0.8 c 0.4159999,0.32 0.864,0.584 1.352,0.784 l 0.3039997,2.12 c 0.023997,0.191997 0.1919994,0.335997 0.3920004,0.335997 h 3.199999 c 0.200001,0 0.368001,-0.144 0.392001,-0.336 l 0.303999,-2.12 c 0.488,-0.2 0.936,-0.472 1.352,-0.784 l 1.992,0.8 c 0.048,0.016 0.096,0.024 0.144001,0.024 0.135999,0 0.271999,-0.072 0.343999,-0.2 l 1.6,-2.768 c 0.096,-0.176 0.056,-0.391999 -0.096,-0.512 z m -1.584,-1.368 c 0.032,0.248 0.04,0.416 0.04,0.584 0,0.168 -0.016,0.344001 -0.04,0.584 l -0.112,0.904 0.712,0.56 0.864,0.672 -0.56,0.968001 -1.016,-0.408001 -0.831999,-0.336 -0.720001,0.544 c -0.344,0.256 -0.671999,0.448 -1,0.584 l -0.848,0.344 -0.128,0.904 -0.159999,1.08 h -1.120001 l -0.152,-1.08 -0.127999,-0.904 -0.848001,-0.344 c -0.3439993,-0.144 -0.6639991,-0.328 -0.9839991,-0.568 l -0.728,-0.56 -0.848,0.344 -1.016,0.408 -0.56,-0.968 0.864,-0.672 0.712,-0.56 -0.112,-0.904 c -0.024,-0.247999 -0.04,-0.432 -0.04,-0.592 0,-0.16 0.016,-0.344 0.04,-0.584 l 0.112,-0.904 -0.712,-0.56 -0.864,-0.6720003 0.56,-0.9679996 1.016,0.4080004 0.832,0.3360001 0.72,-0.544 c 0.344,-0.2560004 0.6719994,-0.4480005 1.0000001,-0.5840004 l 0.848,-0.344 0.128,-0.904 0.159999,-1.08 h 1.112 l 0.152,1.08 0.128,0.904 0.848,0.344 c 0.344001,0.144 0.664001,0.328 0.984001,0.5680002 l 0.727999,0.5600002 0.848001,-0.3440007 1.016,-0.4079998 0.56,0.968 -0.856001,0.6799999 -0.712,0.56 z M 11.923772,9.0022712 c -1.768,0 -3.2000001,1.4319998 -3.2000001,3.1999998 0,1.768 1.4320001,3.200001 3.2000001,3.200001 1.767999,0 3.199999,-1.432001 3.199999,-3.200001 0,-1.768 -1.432,-3.1999998 -3.199999,-3.1999998 z m 0,4.7999998 c -0.880001,0 -1.6,-0.72 -1.6,-1.6 0,-0.88 0.719999,-1.6 1.6,-1.6 0.88,0 1.599999,0.72 1.599999,1.6 0,0.88 -0.719999,1.6 -1.599999,1.6 z"
  />
</svg>
