<?xml version="1.0" encoding="UTF-8" standalone="no"?>
<svg
  xmlns="http://www.w3.org/2000/svg"
  height="24"
  viewBox="0 0 24 24"
  width="24">
  <circle
    fill="#343434"
    cx="14.630508"
    cy="10.474576"
    r="1.2"/>
  <circle
    fill="#343434"
    cx="9.030508"
    cy="10.474576"
    r="1.2"/>
  <path
    fill="#343434"
    d="m 11.830508,15.674576 c -1.184,0 -2.1999995,-0.648 -2.7599995,-1.6 h -1.336 c 0.64,1.64 2.232,2.8 4.0959995,2.8 1.864,0 3.456,-1.16 4.096,-2.8 h -1.336 c -0.552,0.952 -1.576,1.6 -2.76,1.6 z m -0.008,-11.1999997 c -4.4159995,0 -7.9919995,3.584 -7.9919995,7.9999997 0,4.416 3.576,8 7.9919995,8 4.424,0 8.008,-3.584 8.008,-8 0,-4.4159997 -3.584,-7.9999997 -8.008,-7.9999997 z m 0.008,14.3999997 c -3.5359995,0 -6.3999995,-2.864 -6.3999995,-6.4 0,-3.5359997 2.864,-6.3999997 6.3999995,-6.3999997 3.536,0 6.4,2.864 6.4,6.3999997 0,3.536 -2.864,6.4 -6.4,6.4 z"
  />
</svg>
